<?xml version="1.0" encoding="iso-8859-1"?>
<!-- Generator: Adobe Illustrator 16.0.0, SVG Export Plug-In . SVG Version: 6.00 Build 0)  -->
<!DOCTYPE svg PUBLIC "-//W3C//DTD SVG 1.1//EN" "http://www.w3.org/Graphics/SVG/1.1/DTD/svg11.dtd">
<svg version="1.1" id="Capa_1" xmlns="http://www.w3.org/2000/svg" xmlns:xlink="http://www.w3.org/1999/xlink" x="0px" y="0px"
	 width="364.383px" height="364.383px" viewBox="0 0 364.383 364.383" style="enable-background:new 0 0 364.383 364.383;"
	 xml:space="preserve">
<g>
	<g>
		<path d="M271.011,231.496c-0.175-15.679-11.023-19.902-24.209-19.797l-65.9-0.013c-2.908-6.404-5.828-18.135-14.24-24.814
			c-14.983-11.895-27.47-6.413-36.89-0.785c-21.281,12.704-45.342,39.315-59.986,44.25c-18.006,6.066-39.805,4.485-39.805,4.485
			v91.684c37.328,0,60.121,13.122,79.125,20.917c43.068,17.661,73.185,17.357,88.934,16.772
			c32.657-1.215,35.401-27.871,36.286-33.175c8.476-3.372,14.045-8.526,16.601-15.342c0.998-2.656,1.504-5.56,1.504-8.605
			c0-5.119-1.404-9.727-2.656-12.816c7.424-4.091,12.029-9.551,13.707-16.24c0.467-1.837,0.678-3.779,0.701-5.773
			c0.151-13.563-6.672-16.868-6.672-16.868S271.183,247.175,271.011,231.496z"/>
		<path d="M266.525,3.058C217.89-9.837,167.832,19.24,154.936,67.875c-11.508,43.4,10.409,87.93,49.818,106.179l-5.907,22.282
			h32.866l3.751-14.141c43.272,3.673,84.372-24.148,95.879-67.547C344.24,66.011,315.162,15.953,266.525,3.058z M312.15,109.558
			c-10.088,38.052-49.254,60.802-87.308,50.712c-38.053-10.089-60.802-49.254-50.712-87.306
			c10.087-38.052,49.251-60.803,87.307-50.714C299.488,32.34,322.24,71.506,312.15,109.558z"/>
		<path d="M242.173,34.488c-19.074,0-36.511,9.664-46.642,25.852c-2.197,3.511-1.133,8.139,2.379,10.336
			c1.238,0.774,2.613,1.144,3.973,1.144c2.498,0,4.941-1.248,6.363-3.522c7.371-11.777,20.053-18.809,33.927-18.809
			c4.143,0,7.5-3.358,7.5-7.5C249.673,37.847,246.316,34.488,242.173,34.488z"/>
	</g>
</g>
<g>
</g>
<g>
</g>
<g>
</g>
<g>
</g>
<g>
</g>
<g>
</g>
<g>
</g>
<g>
</g>
<g>
</g>
<g>
</g>
<g>
</g>
<g>
</g>
<g>
</g>
<g>
</g>
<g>
</g>
</svg>
